<svg width="61" height="36" viewBox="0 0 61 36" fill="none" xmlns="http://www.w3.org/2000/svg">
<path d="M54.5 0H19.7188C18.0312 0 16.5312 0.75 15.5 1.78125L1.34375 15.9375C0.125 17.0625 0.125 19.0312 1.34375 20.1562L15.5 34.3125C16.625 35.4375 18.125 36 19.7188 36H54.5C57.7812 36 60.5 33.375 60.5 30V6C60.5 2.71875 57.7812 0 54.5 0ZM46.5312 23.9062C47.0938 24.4688 47.0938 25.4062 46.5312 25.9688L44.375 28.125C43.8125 28.6875 42.875 28.6875 42.3125 28.125L36.5 22.3125L30.5938 28.125C30.0312 28.6875 29.0938 28.6875 28.5312 28.125L26.375 25.9688C25.8125 25.4062 25.8125 24.4688 26.375 23.9062L32.1875 18L26.375 12.1875C25.8125 11.625 25.8125 10.6875 26.375 10.125L28.5312 7.96875C29.0938 7.40625 30.0312 7.40625 30.5938 7.96875L36.5 13.7812L42.3125 7.96875C42.875 7.40625 43.8125 7.40625 44.375 7.96875L46.5312 10.125C47.0938 10.6875 47.0938 11.625 46.5312 12.1875L40.7188 18L46.5312 23.9062Z" fill="white"/>
</svg>
