<svg width="31" height="31" viewBox="0 0 31 31" fill="none" xmlns="http://www.w3.org/2000/svg">
<path d="M11.8377 17.625H2.46274C1.40805 17.625 0.58774 18.5039 0.58774 19.5V28.875C0.58774 29.9297 1.40805 30.75 2.46274 30.75H11.8377C12.8338 30.75 13.7127 29.9297 13.7127 28.875V19.5C13.7127 18.5039 12.8338 17.625 11.8377 17.625ZM10.0799 25.8867C10.3143 26.0625 10.3143 26.3555 10.0799 26.5312L9.4354 27.1758C9.25961 27.4102 8.96665 27.4102 8.79086 27.1758L7.15024 25.5352L5.45102 27.1758C5.27524 27.4102 4.98227 27.4102 4.80649 27.1758L4.16196 26.5312C3.92758 26.3555 3.92758 26.0625 4.16196 25.8867L5.80258 24.1875L4.16196 22.5469C3.92758 22.3711 3.92758 22.0781 4.16196 21.9023L4.80649 21.2578C4.98227 21.0234 5.27524 21.0234 5.45102 21.2578L7.15024 22.8984L8.79086 21.2578C8.96665 21.0234 9.25961 21.0234 9.4354 21.2578L10.0799 21.9023C10.3143 22.0781 10.3143 22.3711 10.0799 22.5469L8.4393 24.1875L10.0799 25.8867ZM28.7127 0.75H19.3377C18.2831 0.75 17.4627 1.62891 17.4627 2.625V12C17.4627 13.0547 18.2831 13.875 19.3377 13.875H28.7127C29.7088 13.875 30.5877 13.0547 30.5877 12V2.625C30.5877 1.62891 29.7088 0.75 28.7127 0.75ZM27.7752 7.78125C27.7752 8.07422 27.5409 8.25 27.3065 8.25H24.9627V10.5938C24.9627 10.8867 24.7284 11.0625 24.494 11.0625H23.5565C23.2635 11.0625 23.0877 10.8867 23.0877 10.5938V8.25H20.744C20.451 8.25 20.2752 8.07422 20.2752 7.78125V6.84375C20.2752 6.60938 20.451 6.375 20.744 6.375H23.0877V4.03125C23.0877 3.79688 23.2635 3.5625 23.5565 3.5625H24.494C24.7284 3.5625 24.9627 3.79688 24.9627 4.03125V6.375H27.3065C27.5409 6.375 27.7752 6.60938 27.7752 6.84375V7.78125ZM28.7127 17.625H19.3377C18.2831 17.625 17.4627 18.5039 17.4627 19.5V28.875C17.4627 29.9297 18.2831 30.75 19.3377 30.75H28.7127C29.7088 30.75 30.5877 29.9297 30.5877 28.875V19.5C30.5877 18.5039 29.7088 17.625 28.7127 17.625ZM27.7752 26.5312C27.7752 26.8242 27.5409 27 27.3065 27H20.744C20.451 27 20.2752 26.8242 20.2752 26.5312V25.5938C20.2752 25.3594 20.451 25.125 20.744 25.125H27.3065C27.5409 25.125 27.7752 25.3594 27.7752 25.5938V26.5312ZM27.7752 22.7812C27.7752 23.0742 27.5409 23.25 27.3065 23.25H20.744C20.451 23.25 20.2752 23.0742 20.2752 22.7812V21.8438C20.2752 21.6094 20.451 21.375 20.744 21.375H27.3065C27.5409 21.375 27.7752 21.6094 27.7752 21.8438V22.7812ZM11.8377 0.75H2.46274C1.40805 0.75 0.58774 1.62891 0.58774 2.625V12C0.58774 13.0547 1.40805 13.875 2.46274 13.875H11.8377C12.8338 13.875 13.7127 13.0547 13.7127 12V2.625C13.7127 1.62891 12.8338 0.75 11.8377 0.75ZM10.9002 7.78125C10.9002 8.07422 10.6659 8.25 10.4315 8.25H3.86899C3.57602 8.25 3.40024 8.07422 3.40024 7.78125V6.84375C3.40024 6.60938 3.57602 6.375 3.86899 6.375H10.4315C10.6659 6.375 10.9002 6.60938 10.9002 6.84375V7.78125Z" fill="white"/>
</svg>
