<svg width="46" height="40" viewBox="0 0 46 40" fill="none" xmlns="http://www.w3.org/2000/svg">
<path d="M43.0469 5H11.25L10.5469 1.5625C10.3906 0.703125 9.60938 0 8.75 0H0.9375C0.390625 0 0 0.46875 0 0.9375V2.8125C0 3.35938 0.390625 3.75 0.9375 3.75H7.1875L12.5781 31.5625C11.7188 32.5 11.25 33.6719 11.25 35C11.25 37.8125 13.4375 40 16.25 40C18.9844 40 21.25 37.8125 21.25 35C21.25 34.1406 20.9375 33.2812 20.5469 32.5H31.875C31.4844 33.2812 31.25 34.1406 31.25 35C31.25 37.8125 33.4375 40 36.25 40C38.9844 40 41.25 37.8125 41.25 35C41.25 33.5938 40.625 32.3438 39.6875 31.4062L39.7656 31.0938C40 29.9219 39.1406 28.75 37.8906 28.75H15.8594L15.1562 25H39.5312C40.4688 25 41.1719 24.4531 41.4062 23.5938L44.9219 7.34375C45.1562 6.17188 44.2969 5 43.0469 5ZM36.25 33.125C37.2656 33.125 38.125 33.9844 38.125 35C38.125 36.0938 37.2656 36.875 36.25 36.875C35.1562 36.875 34.375 36.0938 34.375 35C34.375 33.9844 35.1562 33.125 36.25 33.125ZM16.25 33.125C17.2656 33.125 18.125 33.9844 18.125 35C18.125 36.0938 17.2656 36.875 16.25 36.875C15.1562 36.875 14.375 36.0938 14.375 35C14.375 33.9844 15.1562 33.125 16.25 33.125ZM38.0469 21.25H14.375L11.9531 8.75H40.7812L38.0469 21.25ZM21.25 15.625C21.25 16.1719 21.6406 16.5625 22.1875 16.5625H24.6875V19.0625C24.6875 19.6094 25.0781 20 25.625 20H26.875C27.3438 20 27.8125 19.6094 27.8125 19.0625V16.5625H30.3125C30.7812 16.5625 31.25 16.1719 31.25 15.625V14.375C31.25 13.9062 30.7812 13.4375 30.3125 13.4375H27.8125V10.9375C27.8125 10.4688 27.3438 10 26.875 10H25.625C25.0781 10 24.6875 10.4688 24.6875 10.9375V13.4375H22.1875C21.6406 13.4375 21.25 13.9062 21.25 14.375V15.625Z" fill="white"/>
</svg>
