<svg width="39" height="40" viewBox="0 0 39 40" fill="none" xmlns="http://www.w3.org/2000/svg">
<path d="M19.5 0.625C8.79688 0.625 0.125 9.29688 0.125 20C0.125 30.7031 8.79688 39.375 19.5 39.375C30.2031 39.375 38.875 30.7031 38.875 20C38.875 9.29688 30.2031 0.625 19.5 0.625ZM19.5 35.625C10.8281 35.625 3.875 28.6719 3.875 20C3.875 11.4062 10.8281 4.375 19.5 4.375C28.0938 4.375 35.125 11.4062 35.125 20C35.125 28.6719 28.0938 35.625 19.5 35.625ZM27.3906 15.1562C27.7812 14.8438 27.7812 14.2188 27.3906 13.8281L25.6719 12.1094C25.2812 11.7188 24.6562 11.7188 24.3438 12.1094L19.5 16.9531L14.5781 12.1094C14.2656 11.7188 13.6406 11.7188 13.25 12.1094L11.5312 13.8281C11.1406 14.2188 11.1406 14.8438 11.5312 15.1562L16.375 20L11.5312 24.9219C11.1406 25.2344 11.1406 25.8594 11.5312 26.25L13.25 27.9688C13.6406 28.3594 14.2656 28.3594 14.5781 27.9688L19.5 23.125L24.3438 27.9688C24.6562 28.3594 25.2812 28.3594 25.6719 27.9688L27.3906 26.25C27.7812 25.8594 27.7812 25.2344 27.3906 24.9219L22.5469 20L27.3906 15.1562Z" fill="white"/>
</svg>
