<svg width="45" height="36" viewBox="0 0 45 36" fill="none" xmlns="http://www.w3.org/2000/svg">
<path d="M41.1719 0.5H3.75C1.64062 0.5 0 2.21875 0 4.25V31.75C0 33.8594 1.64062 35.5 3.75 35.5H41.1719C43.2812 35.5 45 33.8594 45 31.75V4.25C45 2.21875 43.2812 0.5 41.1719 0.5ZM4.21875 4.25H40.7031C41.0156 4.25 41.1719 4.48438 41.1719 4.71875V8H3.75V4.71875C3.75 4.48438 3.90625 4.25 4.21875 4.25ZM40.7031 31.75H4.21875C3.90625 31.75 3.75 31.5938 3.75 31.2812V18H41.1719V31.2812C41.1719 31.5938 41.0156 31.75 40.7031 31.75ZM15 23.9375C15 23.4688 14.5312 23 14.0625 23H8.4375C7.89062 23 7.5 23.4688 7.5 23.9375V27.0625C7.5 27.6094 7.89062 28 8.4375 28H14.0625C14.5312 28 15 27.6094 15 27.0625V23.9375ZM30 23.9375C30 23.4688 29.5312 23 29.0625 23H18.4375C17.8906 23 17.5 23.4688 17.5 23.9375V27.0625C17.5 27.6094 17.8906 28 18.4375 28H29.0625C29.5312 28 30 27.6094 30 27.0625V23.9375Z" fill="white"/>
</svg>
