<svg width="57" height="26" viewBox="0 0 57 26" fill="none" xmlns="http://www.w3.org/2000/svg">
<path d="M6.78603 25.7776L0.212507 18.8992C-0.0708343 18.6027 -0.0708343 18.1876 0.212507 17.8912L6.78603 11.0128C7.06937 10.7163 7.52272 10.7163 7.74939 11.0128L9.05276 12.3173C9.3361 12.6138 9.27943 13.0882 8.99609 13.3846L5.53933 16.7645L53.8266 16.7645L53.8266 0.751482C53.8266 0.514297 53.8266 0 55 0L56 0C56.5 2.17194e-08 57 0.099222 57 0.751482L57 18.662C57 19.4329 56.4333 20.0851 55.64 20.0851L5.53933 20.0851L8.99609 23.4057C9.27943 23.7022 9.3361 24.1766 9.05276 24.4731L7.74939 25.7776C7.52272 26.0741 7.06937 26.0741 6.78603 25.7776Z" fill="white"/>
</svg>
