<svg width="47" height="48" viewBox="0 0 47 48" fill="none" xmlns="http://www.w3.org/2000/svg">
<path d="M23.5 0.75C10.6562 0.75 0.25 11.1562 0.25 24C0.25 36.8438 10.6562 47.25 23.5 47.25C36.3438 47.25 46.75 36.8438 46.75 24C46.75 11.1562 36.3438 0.75 23.5 0.75ZM41.5938 15H33.8125C32.9688 10.875 31.5625 7.3125 29.7812 4.78125C34.9375 6.5625 39.1562 10.2188 41.5938 15ZM31.75 24C31.75 26.1562 31.5625 28.2188 31.2812 30H15.625C15.3438 28.2188 15.25 26.1562 15.25 24C15.25 21.9375 15.3438 19.875 15.625 18H31.2812C31.5625 19.875 31.75 21.9375 31.75 24ZM23.5 3.75C25.9375 3.75 29.2188 7.96875 30.8125 15H16.0938C17.6875 7.96875 20.9688 3.75 23.5 3.75ZM17.125 4.78125C15.3438 7.3125 13.9375 10.875 13.0938 15H5.3125C7.75 10.2188 11.9688 6.5625 17.125 4.78125ZM3.25 24C3.25 21.9375 3.53125 19.9688 4.09375 18H12.625C12.3438 19.9688 12.25 21.9375 12.25 24C12.25 26.1562 12.3438 28.125 12.625 30H4.09375C3.53125 28.125 3.25 26.1562 3.25 24ZM5.3125 33H13.0938C13.9375 37.2188 15.3438 40.7812 17.125 43.3125C11.9688 41.5312 7.75 37.875 5.3125 33ZM23.5 44.25C20.9688 44.25 17.6875 40.125 16.0938 33H30.8125C29.2188 40.125 25.9375 44.25 23.5 44.25ZM29.7812 43.3125C31.5625 40.7812 32.9688 37.2188 33.8125 33H41.5938C39.1562 37.875 34.9375 41.5312 29.7812 43.3125ZM34.2812 30C34.5625 28.125 34.75 26.1562 34.75 24C34.75 21.9375 34.5625 19.9688 34.2812 18H42.8125C43.375 19.9688 43.75 21.9375 43.75 24C43.75 26.1562 43.375 28.125 42.8125 30H34.2812Z" fill="white"/>
</svg>
