<svg width="51" height="36" viewBox="0 0 51 36" fill="none" xmlns="http://www.w3.org/2000/svg">
<path d="M25.5 10.5781C21.9844 10.5781 19.25 13.9375 19.25 18.0781C19.25 22.2969 21.9844 25.6562 25.5 25.6562C28.9375 25.6562 31.75 22.2969 31.75 18.0781C31.75 13.9375 28.9375 10.5781 25.5 10.5781ZM49.0156 2.29688C45.9688 1.04688 42.9219 0.5 39.875 0.5C30.2656 0.5 20.6562 5.42188 11.0469 5.42188C8.625 5.42188 6.20312 5.10938 3.78125 4.32812C3.54688 4.25 3.23438 4.17188 3 4.17188C1.67188 4.17188 0.5 5.26562 0.5 6.67188V31.5156C0.5 32.4531 1.04688 33.3906 1.90625 33.7812C4.95312 35.0312 8 35.5 11.0469 35.5C20.6562 35.5 30.2656 30.6562 39.875 30.6562C42.2969 30.6562 44.7188 30.9688 47.1406 31.75C47.375 31.8281 47.6875 31.8281 47.9219 31.8281C49.25 31.8281 50.5 30.8125 50.5 29.4062V4.5625C50.5 3.625 49.875 2.6875 49.0156 2.29688ZM46.75 23.2344C44.6406 23.4688 42.9219 25.0312 42.4531 27.0625C41.5938 26.9844 40.8125 26.9062 39.875 26.9062C34.6406 26.9062 29.4844 28.2344 24.5625 29.4844C19.7969 30.6562 15.3438 31.75 11.0469 31.75C10.4219 31.75 9.79688 31.75 9.17188 31.75C9.09375 29.0156 6.90625 26.9062 4.25 26.9062V13.0781C6.67188 13.0781 8.625 11.3594 9.09375 9.01562C9.71875 9.09375 10.3438 9.17188 11.0469 9.17188C16.2812 9.17188 21.4375 7.84375 26.3594 6.59375C31.125 5.42188 35.5781 4.25 39.875 4.25C40.7344 4.25 41.5156 4.32812 42.375 4.40625C42.4531 6.90625 44.3281 8.9375 46.75 9.25V23.2344Z" fill="white"/>
</svg>
