<svg width="33" height="44" viewBox="0 0 33 44" fill="none" xmlns="http://www.w3.org/2000/svg">
<path d="M30.8558 0C30.4129 0 29.97 0.144737 29.5271 0.434211L26.3529 2.67763L23.474 0.723684C22.8835 0.289474 22.1453 0.0723684 21.4071 0.0723684C20.669 0.0723684 20.0046 0.289474 19.3402 0.723684L16.5352 2.67763L13.6563 0.723684C13.0657 0.289474 12.3276 0.0723684 11.5894 0.0723684C10.8512 0.0723684 10.113 0.289474 9.52248 0.723684L6.64359 2.67763L3.46943 0.434211C3.02653 0.144737 2.58362 0 2.14071 0C1.03345 0.0723684 0 0.940789 0 2.17105V41.9013C0 43.1316 1.03345 44 2.14071 44C2.58362 44 3.02653 43.9276 3.46943 43.6382L6.64359 41.3224L9.52248 43.3487C10.113 43.7829 10.8512 44 11.5894 44C12.3276 44 13.0657 43.7829 13.6563 43.3487L16.5352 41.3224L19.3402 43.3487C20.0046 43.7829 20.669 44 21.4071 44C22.1453 44 22.8835 43.7829 23.474 43.3487L26.3529 41.3224L29.5271 43.6382C29.97 43.9276 30.4129 44 30.8558 44C31.9631 44 32.9965 43.1316 32.9965 41.9013V2.17105C33.0703 0.940789 31.9631 0 30.8558 0ZM30.7082 41.5395L27.7554 39.4408L26.3529 38.5L24.9504 39.4408L22.1453 41.4671C21.9239 41.6118 21.7024 41.6842 21.4071 41.6842C21.1857 41.6842 20.9642 41.6118 20.7428 41.4671L17.8639 39.4408L16.5352 38.5L15.1326 39.4408L12.2537 41.4671C12.0323 41.6118 11.8108 41.6842 11.5894 41.6842C11.2941 41.6842 11.0727 41.6118 10.8512 41.4671L8.04613 39.4408L6.64359 38.5L5.31487 39.4408L2.36217 41.6118V2.53289L5.31487 4.55921L6.64359 5.57237L8.04613 4.55921L10.925 2.60526C11.0727 2.46053 11.3679 2.38816 11.5894 2.38816C11.8108 2.38816 12.0323 2.46053 12.2537 2.60526L15.1326 4.55921L16.5352 5.57237L17.8639 4.55921L20.7428 2.60526C20.9642 2.46053 21.1857 2.38816 21.4071 2.38816C21.7024 2.38816 21.9239 2.46053 22.1453 2.60526L24.9504 4.55921L26.3529 5.57237L27.7554 4.55921L30.7082 2.53289V41.5395Z" fill="white"/>
<path d="M19.9688 22.9688L26.7188 16.2812C27.0938 15.9062 27.0938 15.2188 26.7188 14.8438L25.1562 13.2812C24.7812 12.9062 24.0938 12.9062 23.7188 13.2812L17.0312 20.0312L10.2812 13.2812C9.90625 12.9062 9.21875 12.9062 8.84375 13.2812L7.28125 14.8438C6.90625 15.2188 6.90625 15.9062 7.28125 16.2812L14.0312 22.9688L7.28125 29.7188C6.90625 30.0938 6.90625 30.7812 7.28125 31.1562L8.84375 32.7188C9.21875 33.0938 9.90625 33.0938 10.2812 32.7188L17.0312 25.9688L23.7188 32.7188C24.0938 33.0938 24.7812 33.0938 25.1562 32.7188L26.7188 31.1562C27.0938 30.7812 27.0938 30.0938 26.7188 29.7188L19.9688 22.9688Z" fill="white"/>
</svg>
