<svg width="35" height="27" viewBox="0 0 35 27" fill="none" xmlns="http://www.w3.org/2000/svg">
<path d="M6.78603 0.49996L0.212506 7.37834C-0.0708353 7.67483 -0.0708353 8.0899 0.212506 8.38638L6.78603 15.2648C7.06937 15.5612 7.52272 15.5612 7.74939 15.2648L9.05276 13.9602C9.3361 13.6638 9.27943 13.1894 8.99609 12.8929L5.53933 9.51301L31 9.51289L31 22.5259C27 22.5001 23 22.5259 18 22.5259L18 26.5001H33.1734C33.6734 26.5001 34.1734 26.1782 34.1734 25.5259L34.1734 7.61541C34.1734 6.84456 33.6067 6.19229 32.8134 6.19229L5.53933 6.19241L8.99609 2.87182C9.27943 2.57533 9.3361 2.10096 9.05276 1.80448L7.74939 0.499959C7.52272 0.203477 7.06937 0.203477 6.78603 0.49996Z" fill="white"/>
</svg>
