<svg width="27" height="26" viewBox="0 0 27 26" fill="none" xmlns="http://www.w3.org/2000/svg">
<path d="M17.1719 13L25.6094 4.64062C26.0781 4.17188 26.0781 3.3125 25.6094 2.84375L23.6562 0.890625C23.1875 0.421875 22.3281 0.421875 21.8594 0.890625L13.5 9.32812L5.0625 0.890625C4.59375 0.421875 3.73438 0.421875 3.26562 0.890625L1.3125 2.84375C0.84375 3.3125 0.84375 4.17188 1.3125 4.64062L9.75 13L1.3125 21.4375C0.84375 21.9062 0.84375 22.7656 1.3125 23.2344L3.26562 25.1875C3.73438 25.6562 4.59375 25.6562 5.0625 25.1875L13.5 16.75L21.8594 25.1875C22.3281 25.6562 23.1875 25.6562 23.6562 25.1875L25.6094 23.2344C26.0781 22.7656 26.0781 21.9062 25.6094 21.4375L17.1719 13Z" fill="white"/>
</svg>
