<svg width="81" height="81" viewBox="0 0 81 81" fill="none" xmlns="http://www.w3.org/2000/svg">
<path fill-rule="evenodd" clip-rule="evenodd" d="M4.08761 40.5C4.08761 20.39 20.39 4.08761 40.5 4.08761C60.61 4.08761 76.9124 20.39 76.9124 40.5C76.9124 51.2366 72.2655 60.8878 64.8733 67.5523C64.2303 67.0238 63.5387 66.5496 62.8155 66.1167C60.8345 64.931 58.6159 64.055 56.505 63.2216C52.6717 61.7081 49.194 60.3351 48.1415 57.5023C47.9719 55.6298 47.9847 54.1971 47.9988 52.618L47.9988 52.617C48.0028 52.1649 48.007 51.7009 48.007 51.2112C49.0979 50.6389 51.0524 46.9897 51.3827 43.9069C52.2404 43.8367 53.5928 42.9998 53.9888 39.6959C54.2025 37.9221 53.3537 36.9239 52.8367 36.6101C54.2324 32.4125 57.1314 19.4267 47.475 18.0848C46.4813 16.3394 43.9364 15.4563 40.6295 15.4563C27.3987 15.6999 25.8027 25.4474 28.7032 36.6101C28.1877 36.9239 27.3389 37.9221 27.5511 39.6959C27.9486 42.9998 29.2994 43.8367 30.1572 43.9069C30.4859 46.9882 32.5182 50.6389 33.6121 51.2112C33.6121 51.6963 33.6161 52.1562 33.62 52.6042V52.6043C33.6337 54.1888 33.6462 55.6244 33.4761 57.5023C32.4225 60.3347 28.9329 61.7072 25.0848 63.2207C22.9875 64.0456 20.7837 64.9124 18.8099 66.0802C17.9528 66.5873 17.1391 67.1511 16.3962 67.7929C8.8476 61.1213 4.08761 51.3665 4.08761 40.5ZM40.5 0C18.1325 0 0 18.1325 0 40.5C0 62.8675 18.1325 81 40.5 81C62.8675 81 81 62.8675 81 40.5C81 18.1325 62.8675 0 40.5 0Z" fill="white"/>
</svg>
