<svg width="64" height="64" viewBox="0 0 64 64" fill="none" xmlns="http://www.w3.org/2000/svg">
<path d="M61.9999 36C61.3454 30.215 58.5631 24.88 54.1941 21.0321C49.825 17.1843 44.1813 15.0984 38.3599 15.18H7.99995L14.4999 5.99997C14.6556 5.78314 14.7662 5.53736 14.8254 5.2771C14.8846 5.01683 14.8911 4.74736 14.8445 4.48456C14.7979 4.22176 14.6991 3.97094 14.5541 3.74688C14.4091 3.52283 14.2206 3.33007 13.9999 3.17997C13.5672 2.87632 13.0318 2.75636 12.5109 2.84631C11.99 2.93626 11.5258 3.22879 11.2199 3.65997L2.29995 16.16C2.09426 16.4529 1.98389 16.8021 1.98389 17.16C1.98389 17.5179 2.09426 17.8671 2.29995 18.16L11.2399 30.68C11.564 31.0533 12.0147 31.2934 12.5053 31.354C12.9959 31.4146 13.4916 31.2913 13.8967 31.008C14.3017 30.7247 14.5876 30.3014 14.699 29.8198C14.8104 29.3382 14.7395 28.8324 14.4999 28.4L7.99995 19.18H38.3599C43.261 19.1146 48.0063 20.9011 51.6474 24.1825C55.2884 27.4639 57.5571 31.9985 57.9999 36.88C58.1752 39.4782 57.815 42.0848 56.9418 44.5381C56.0685 46.9915 54.7007 49.2394 52.9232 51.1425C51.1457 53.0457 48.9962 54.5636 46.6081 55.6021C44.22 56.6406 41.6441 57.1777 39.0399 57.18H3.99995C3.46952 57.18 2.96081 57.3907 2.58573 57.7658C2.21066 58.1408 1.99995 58.6495 1.99995 59.18C1.99995 59.7104 2.21066 60.2191 2.58573 60.5942C2.96081 60.9693 3.46952 61.18 3.99995 61.18H38.9999C42.212 61.1914 45.3908 60.5304 48.3321 59.2397C51.2734 57.9489 53.912 56.0569 56.0782 53.6853C58.2445 51.3137 59.8905 48.515 60.9103 45.4692C61.9302 42.4234 62.3014 39.1978 61.9999 36V36Z" fill="white"/>
<path d="M11.1999 31.54L2.25988 19.02C2.0621 18.724 1.95654 18.376 1.95654 18.02C1.95654 17.664 2.0621 17.316 2.25988 17.02L11.1999 4.45997C11.353 4.24523 11.547 4.06288 11.7709 3.92343C11.9947 3.78398 12.2439 3.69018 12.5042 3.64743C12.7644 3.60467 13.0305 3.61381 13.2872 3.67432C13.5439 3.73482 13.7861 3.8455 13.9999 3.99997V3.99997C14.2146 4.15307 14.397 4.34712 14.5364 4.57097C14.6759 4.79481 14.7697 5.04403 14.8124 5.30427C14.8552 5.56451 14.846 5.83064 14.7855 6.08733C14.725 6.34403 14.6144 6.58622 14.4599 6.79997L6.45988 18L14.4599 29.2C14.6144 29.4137 14.725 29.6559 14.7855 29.9126C14.846 30.1693 14.8552 30.4354 14.8124 30.6957C14.7697 30.9559 14.6759 31.2051 14.5364 31.429C14.397 31.6528 14.2146 31.8469 13.9999 32C13.7861 32.1544 13.5439 32.2651 13.2872 32.3256C13.0305 32.3861 12.7644 32.3953 12.5042 32.3525C12.2439 32.3098 11.9947 32.216 11.7709 32.0765C11.547 31.9371 11.353 31.7547 11.1999 31.54Z" fill="white"/>
<path d="M38.32 16H4C3.46957 16 2.96086 16.2107 2.58579 16.5858C2.21071 16.9608 2 17.4695 2 18V18C2 18.5304 2.21071 19.0391 2.58579 19.4142C2.96086 19.7893 3.46957 20 4 20H38.32C43.2279 19.9244 47.9831 21.7064 51.6327 24.9888C55.2823 28.2712 57.5566 32.8115 58 37.7C58.1755 40.3016 57.8142 42.9115 56.9385 45.3676C56.0628 47.8236 54.6914 50.0734 52.9096 51.9772C51.1278 53.8809 48.9735 55.3979 46.5807 56.434C44.1878 57.4701 41.6075 58.0031 39 58H4C3.46957 58 2.96086 58.2107 2.58579 58.5858C2.21071 58.9608 2 59.4695 2 60V60C2 60.5304 2.21071 61.0391 2.58579 61.4142C2.96086 61.7893 3.46957 62 4 62H39C42.2157 62.0119 45.3983 61.3499 48.3425 60.0568C51.2868 58.7636 53.9275 56.8679 56.0944 54.4919C58.2613 52.1158 59.9063 49.3122 60.9235 46.2615C61.9406 43.2109 62.3073 39.981 62 36.78C61.3399 30.9934 58.5492 25.6599 54.1717 21.8185C49.7941 17.977 44.1432 15.9028 38.32 16V16Z" fill="white"/>
</svg>
