<svg width="83" height="66" viewBox="0 0 83 66" fill="none" xmlns="http://www.w3.org/2000/svg">
<path d="M21.2969 41.7656C21.2969 41.0313 20.5625 40.2969 19.8281 40.2969H18.3594C17.5332 40.2969 16.8906 41.0313 16.8906 41.7656V43.2344C16.8906 44.0605 17.5332 44.7031 18.3594 44.7031H19.8281C20.5625 44.7031 21.2969 44.0605 21.2969 43.2344V41.7656ZM12.4844 41.7656C12.4844 41.0313 11.75 40.2969 11.0156 40.2969H9.54688C8.7207 40.2969 8.07813 41.0313 8.07813 41.7656V43.2344C8.07813 44.0605 8.7207 44.7031 9.54688 44.7031H11.0156C11.75 44.7031 12.4844 44.0605 12.4844 43.2344V41.7656ZM15.4219 46.1719H13.9531C13.127 46.1719 12.4844 46.9063 12.4844 47.6406V49.1094C12.4844 49.9355 13.127 50.5781 13.9531 50.5781H15.4219C16.1563 50.5781 16.8906 49.9355 16.8906 49.1094V47.6406C16.8906 46.9063 16.1563 46.1719 15.4219 46.1719ZM24.2344 46.1719H22.7656C21.9395 46.1719 21.2969 46.9063 21.2969 47.6406V49.1094C21.2969 49.9355 21.9395 50.5781 22.7656 50.5781H24.2344C24.9688 50.5781 25.7031 49.9355 25.7031 49.1094V47.6406C25.7031 46.9063 24.9688 46.1719 24.2344 46.1719ZM30.1094 41.7656C30.1094 41.0313 29.375 40.2969 28.6406 40.2969H27.1719C26.3457 40.2969 25.7031 41.0313 25.7031 41.7656V43.2344C25.7031 44.0605 26.3457 44.7031 27.1719 44.7031H28.6406C29.375 44.7031 30.1094 44.0605 30.1094 43.2344V41.7656ZM46.9082 53.8828L44.5215 37.543C44.2461 35.3398 42.4102 33.6875 40.207 33.6875H17.625V27.8125H24.9688C25.7031 27.8125 26.4375 27.1699 26.4375 26.3438V20.4688C26.4375 19.7344 25.7031 19 24.9688 19H7.34375C6.51758 19 5.875 19.7344 5.875 20.4688V26.3438C5.875 27.1699 6.51758 27.8125 7.34375 27.8125H14.6875V33.6875H6.70117C4.49805 33.6875 2.66211 35.3398 2.38672 37.543L0 53.8828C0 54.1582 0 54.4336 0 54.709V61.5938C0 64.0723 1.92773 66 4.40625 66H42.5938C44.9805 66 47 64.0723 47 61.5938V54.709C47 54.4336 46.9082 54.1582 46.9082 53.8828ZM8.8125 24.875V21.9375H23.5V24.875H8.8125ZM5.23242 37.9102C5.32422 37.1758 5.9668 36.625 6.70117 36.625H40.207C40.9414 36.625 41.584 37.1758 41.6758 37.9102L43.9707 54.25H2.9375L5.23242 37.9102ZM44.0625 61.5938C44.0625 62.4199 43.3281 63.0625 42.5938 63.0625H4.40625C3.58008 63.0625 2.9375 62.4199 2.9375 61.5938V57.1875H44.0625V61.5938ZM37.4531 40.2969H35.9844C35.1582 40.2969 34.5156 41.0313 34.5156 41.7656V43.2344C34.5156 44.0605 35.1582 44.7031 35.9844 44.7031H37.4531C38.1875 44.7031 38.9219 44.0605 38.9219 43.2344V41.7656C38.9219 41.0313 38.1875 40.2969 37.4531 40.2969ZM33.0469 46.1719H31.5781C30.752 46.1719 30.1094 46.9063 30.1094 47.6406V49.1094C30.1094 49.9355 30.752 50.5781 31.5781 50.5781H33.0469C33.7813 50.5781 34.5156 49.9355 34.5156 49.1094V47.6406C34.5156 46.9063 33.7813 46.1719 33.0469 46.1719Z" fill="white"/>
<path d="M77.2251 27.3195C78.1824 27.4259 79.0333 26.5749 79.0333 25.5113L79.0333 20.8311C79.0333 19.7674 78.1824 18.9165 77.2251 19.0228L64.0355 19.0228L63.9291 5.72686C64.0355 4.76955 63.1845 3.91861 62.1209 3.91861L57.4407 3.91861C56.377 3.91861 55.5261 4.76955 55.6324 5.72686L55.6324 18.9165L42.3365 19.0228C41.3791 18.9165 40.5282 19.7674 40.5282 20.8311L40.5282 25.5113C40.5282 26.5749 41.3791 27.4259 42.3365 27.3195L55.6324 27.4259L55.6324 40.6155C55.5261 41.5728 56.377 42.4237 57.4407 42.4237H62.1209C63.1845 42.4237 64.0355 41.5728 63.9291 40.6155L64.0355 27.3195L77.2251 27.3195Z" fill="white"/>
</svg>
