<svg width="56" height="64" viewBox="0 0 56 64" fill="none" xmlns="http://www.w3.org/2000/svg">
<path d="M43 30H13C12.375 30 12 30.5 12 31V33C12 33.625 12.375 34 13 34H43C43.5 34 44 33.625 44 33V31C44 30.5 43.5 30 43 30ZM43 42H13C12.375 42 12 42.5 12 43V45C12 45.625 12.375 46 13 46H43C43.5 46 44 45.625 44 45V43C44 42.5 43.5 42 43 42ZM52.25 0C51.5 0 50.75 0.25 50 0.75L44.625 4.625L39.75 1.25C38.75 0.5 37.5 0.125 36.25 0.125C35 0.125 33.875 0.5 32.75 1.25L28 4.625L23.125 1.25C22.125 0.5 20.875 0.125 19.625 0.125C18.375 0.125 17.125 0.5 16.125 1.25L11.25 4.625L5.875 0.75C5.125 0.25 4.375 0 3.625 0C1.75 0.125 0 1.625 0 3.75V60.375C0 62.5 1.75 64 3.625 64C4.375 64 5.125 63.875 5.875 63.375L11.25 59.375L16.125 62.875C17.125 63.625 18.375 64 19.625 64C20.875 64 22.125 63.625 23.125 62.875L28 59.375L32.75 62.875C33.875 63.625 35 64 36.25 64C37.5 64 38.75 63.625 39.75 62.875L44.625 59.375L50 63.375C50.75 63.875 51.5 64 52.25 64C54.125 64 55.875 62.5 55.875 60.375V3.75C56 1.625 54.125 0 52.25 0ZM52 59.75L47 56.125L44.625 54.5L42.25 56.125L37.5 59.625C37.125 59.875 36.75 60 36.25 60C35.875 60 35.5 59.875 35.125 59.625L30.25 56.125L28 54.5L25.625 56.125L20.75 59.625C20.375 59.875 20 60 19.625 60C19.125 60 18.75 59.875 18.375 59.625L13.625 56.125L11.25 54.5L9 56.125L4 59.875V4.375L9 7.875L11.25 9.625L13.625 7.875L18.5 4.5C18.75 4.25 19.25 4.125 19.625 4.125C20 4.125 20.375 4.25 20.75 4.5L25.625 7.875L28 9.625L30.25 7.875L35.125 4.5C35.5 4.25 35.875 4.125 36.25 4.125C36.75 4.125 37.125 4.25 37.5 4.5L42.25 7.875L44.625 9.625L47 7.875L52 4.375V59.75ZM43 18H13C12.375 18 12 18.5 12 19V21C12 21.625 12.375 22 13 22H43C43.5 22 44 21.625 44 21V19C44 18.5 43.5 18 43 18Z" fill="white"/>
</svg>
