<svg width="69" height="69" viewBox="0 0 69 69" fill="none" xmlns="http://www.w3.org/2000/svg">
<path d="M66.9785 13.207L55.793 2.02148C54.5801 0.808594 52.8281 0 51.2109 0H23.584C20.0801 0.134766 17.25 2.96484 17.25 6.60352V38.8125H1.07812C0.404297 38.8125 0 39.3516 0 39.8906V42.0469C0 42.7207 0.404297 43.125 1.07812 43.125H34.5V50.2676C34.5 51.75 35.3086 53.0977 36.6562 53.6367C38.6777 54.5801 40.2949 53.502 40.834 52.9629L50.5371 43.7988C51.2109 42.9902 51.75 42.0469 51.75 41.1035C51.75 40.0254 51.2109 39.082 50.5371 38.2734L40.834 29.1094C39.7559 28.0312 38.1387 27.7617 36.6562 28.4355C35.3086 28.9746 34.5 30.3223 34.5 31.8047V38.8125H21.5625V6.60352C21.5625 5.39062 22.5059 4.3125 23.7188 4.3125H47.4375V18.4629C47.4375 20.2148 48.7852 21.5625 50.6719 21.5625H64.6875V62.666C64.6875 63.7441 63.6094 64.8223 62.5312 64.8223H23.584C22.5059 64.8223 21.4277 63.7441 21.4277 62.666V47.4375H17.25V62.666C17.25 66.1699 20.0801 69 23.584 69H62.5312C66.0352 69 69 66.1699 69 62.666V17.7891C69 16.1719 68.1914 14.4199 66.9785 13.207ZM38.8125 33.1523L47.168 40.9688L38.8125 48.9199V33.1523ZM51.75 17.3848V4.44727C52.0195 4.58203 52.4238 4.7168 52.6934 4.98633L64.0137 16.3066C64.2832 16.5762 64.418 16.9805 64.5527 17.3848H51.75Z" fill="white"/>
</svg>
