<svg xmlns="http://www.w3.org/2000/svg" version="1.1" xmlns:xlink="http://www.w3.org/1999/xlink" xmlns:svgjs="http://svgjs.com/svgjs" width="74" height="74" x="0" y="0" viewBox="0 0 501 501.976" style="enable-background:new 0 0 512 512" xml:space="preserve" class=""><g><path d="m48.753906 295.140625h132.871094c8.832031-.011719 15.988281-7.167969 16-16v-37.199219c-.011719-8.832031-7.167969-15.992187-16-16h-132.871094c-8.835937.007813-15.992187 7.167969-16 16v37.199219c.007813 8.832031 7.164063 15.988281 16 16zm-4-53.199219c0-2.210937 1.789063-4 4-4h132.871094c2.210938 0 4 1.789063 4 4v37.199219c0 2.207031-1.789062 4-4 4h-132.871094c-2.210937 0-4-1.792969-4-4zm0 0" fill="#ffffff" data-original="#000000" class=""></path><path d="m89.257812 130.710938c2.953126.003906 5.34375 2.398437 5.347657 5.351562 0 3.3125 2.6875 6 6 6s6-2.6875 6-6c-.011719-7.261719-4.539063-13.746094-11.347657-16.257812v-1.328126c0-3.316406-2.6875-6-6-6-3.316406 0-6 2.683594-6 6v1.324219c-7.890624 2.902344-12.558593 11.042969-11.082031 19.316407 1.476563 8.273437 8.675781 14.296874 17.082031 14.292968 2.925782.023438 5.289063 2.394532 5.304688 5.320313.011719 2.925781-2.328125 5.320312-5.253906 5.375-.019532 0-.035156 0-.050782 0-.019531 0-.035156 0-.054687 0-2.933594-.03125-5.292969-2.414063-5.300781-5.347657 0-3.3125-2.683594-6-6-6-3.3125 0-6 2.6875-6 6 .015625 7.261719 4.542968 13.746094 11.351562 16.261719v1.84375c0 3.3125 2.6875 6 6 6s6-2.6875 6-6v-1.84375c7.886719-2.90625 12.558594-11.046875 11.078125-19.320312-1.476562-8.273438-8.671875-14.296875-17.078125-14.289063-2.914062-.058594-5.246094-2.4375-5.246094-5.351562 0-2.914063 2.332032-5.292969 5.246094-5.347656zm0 0" fill="#ffffff" data-original="#000000" class=""></path><path d="m147.679688 65.546875h10.894531c3.3125 0 6-2.6875 6-6s-2.6875-6-6-6h-10.894531c-3.316407 0-6 2.6875-6 6s2.683593 6 6 6zm0 0" fill="#ffffff" data-original="#000000" class=""></path><path d="m76.214844 65.546875h52.640625c3.316406 0 6-2.6875 6-6s-2.683594-6-6-6h-52.640625c-3.3125 0-6 2.6875-6 6s2.6875 6 6 6zm0 0" fill="#ffffff" data-original="#000000" class=""></path><path d="m147.679688 37.828125h10.894531c3.3125 0 6-2.683594 6-6 0-3.3125-2.6875-6-6-6h-10.894531c-3.316407 0-6 2.6875-6 6 0 3.316406 2.683593 6 6 6zm0 0" fill="#ffffff" data-original="#000000" class=""></path><path d="m76.214844 37.828125h52.640625c3.316406 0 6-2.683594 6-6 0-3.3125-2.683594-6-6-6h-52.640625c-3.3125 0-6 2.6875-6 6 0 3.316406 2.6875 6 6 6zm0 0" fill="#ffffff" data-original="#000000" class=""></path><path d="m147.679688 93.265625h10.894531c3.3125 0 6-2.6875 6-6 0-3.316406-2.6875-6-6-6h-10.894531c-3.316407 0-6 2.683594-6 6 0 3.3125 2.683593 6 6 6zm0 0" fill="#ffffff" data-original="#000000" class=""></path><path d="m76.214844 93.265625h52.640625c3.316406 0 6-2.6875 6-6 0-3.316406-2.683594-6-6-6h-52.640625c-3.3125 0-6 2.683594-6 6 0 3.3125 2.6875 6 6 6zm0 0" fill="#ffffff" data-original="#000000" class=""></path><path d="m116.035156 173.484375c0 3.3125 2.683594 6 6 6h17.738282c3.3125 0 6-2.6875 6-6s-2.6875-6-6-6h-17.738282c-3.316406 0-6 2.6875-6 6zm0 0" fill="#ffffff" data-original="#000000" class=""></path><path d="m157.289062 167.484375h-2.167968c-3.3125 0-6 2.6875-6 6s2.6875 6 6 6h2.167968c3.3125 0 6-2.6875 6-6s-2.6875-6-6-6zm0 0" fill="#ffffff" data-original="#000000" class=""></path><path d="m38.753906 333.421875h152.871094c3.3125 0 6-2.6875 6-6 0-3.316406-2.6875-6-6-6h-152.871094c-3.316406 0-6 2.683594-6 6 0 3.3125 2.683594 6 6 6zm0 0" fill="#ffffff" data-original="#000000" class=""></path><path d="m282.355469 298.59375c-18.496094-.023438-36.644531 5.027344-52.46875 14.605469v-138.714844c-.015625-13.3125-10.800781-24.101563-24.113281-24.117187h-20.300782v-61.898438l46.625.742188c1.609375.035156 3.160156-.585938 4.300782-1.722657 1.144531-1.128906 1.789062-2.667969 1.789062-4.277343v-50.851563c-.019531-17.863281-14.496094-32.3398438-32.363281-32.359375h-122.570313c-17.796875.0195312-32.21875 14.441406-32.238281 32.238281v118.128907h-26.410156c-13.3125.015624-24.101563 10.804687-24.117188 24.117187v253.632813c.015625 13.3125 10.804688 24.101562 24.117188 24.117187h170.339843c25.128907 42.289063 76.925782 60.527344 123.007813 43.3125 46.078125-17.214844 73.234375-64.941406 64.484375-113.347656s-50.890625-83.609375-100.082031-83.605469zm-56.167969-266.234375v44.753906l-40.722656-.648437v-44.105469c0-11.246094 9.117187-20.359375 20.359375-20.359375 11.246093 0 20.363281 9.113281 20.363281 20.359375zm-142.933594-20.359375h97.445313c-4.683594 5.75-7.238281 12.941406-7.234375 20.359375v157.34375h-110.449219v-157.464844c.011719-11.171875 9.066406-20.226562 20.238281-20.238281zm-58.648437 428.234375c-6.6875-.007813-12.109375-5.425781-12.117188-12.117187v-253.632813c.007813-6.6875 5.429688-12.109375 12.117188-12.117187h26.410156v27.335937h-17.351563c-3.316406 0-6 2.6875-6 6 0 3.316406 2.683594 6 6 6h163.050782c3.3125 0 6-2.683594 6-6 0-3.3125-2.6875-6-6-6h-11.25v-27.335937h20.300781c6.6875.007812 12.109375 5.429687 12.117187 12.117187v147.214844c-12.449218 10.222656-22.304687 23.246093-28.769531 38h-150.359375c-3.316406 0-6 2.6875-6 6 0 3.316406 2.683594 6 6 6h146c-2.507812 8.542969-3.875 17.378906-4.070312 26.28125h-141.929688c-3.316406 0-6 2.6875-6 6s2.683594 6 6 6h142.363282c.984374 10.421875 3.585937 20.628906 7.710937 30.25zm257.75 49.765625c-49.539063 0-89.699219-40.160156-89.699219-89.699219 0-49.539062 40.160156-89.699219 89.699219-89.699219 49.539062 0 89.699219 40.160157 89.699219 89.699219-.054688 49.515625-40.183594 89.644531-89.699219 89.699219zm0 0" fill="#ffffff" data-original="#000000" class=""></path><path d="m339.066406 423.265625-50.710937-28.285156v-46.902344c0-3.3125-2.6875-6-6-6s-6 2.6875-6 6v50.421875c0 2.175781 1.175781 4.179688 3.078125 5.238281l53.789062 30c2.890625 1.589844 6.519532.546875 8.128906-2.332031 1.605469-2.882812.585938-6.519531-2.285156-8.144531zm0 0" fill="#ffffff" data-original="#000000" class=""></path></g></svg>