<svg width="74" height="74" viewBox="0 0 74 74" fill="none" xmlns="http://www.w3.org/2000/svg">
<path d="M62.4375 27.75H60.125V15.8984C60.125 14.5977 59.5469 13.4414 58.6797 12.5742L47.5508 1.44531C46.6836 0.578125 45.5273 0 44.2266 0H18.2109C15.7539 0 13.875 2.16797 13.875 4.625V27.75H11.5625C5.05859 27.75 0 32.9531 0 39.3125V53.1875C0 54.4883 1.01172 55.5 2.3125 55.5H13.875V71.6875C13.875 72.9883 14.8867 74 16.1875 74H57.8125C58.9688 74 60.125 72.9883 60.125 71.6875V55.5H71.6875C72.8438 55.5 74 54.4883 74 53.1875V39.3125C74 32.9531 68.7969 27.75 62.4375 27.75ZM46.25 6.64844L53.4766 13.875H46.25V6.64844ZM18.5 4.625H41.625V13.875C41.625 16.4766 43.6484 18.5 46.25 18.5H55.5V27.75H18.5V4.625ZM55.5 69.375H18.5V55.5H55.5V69.375ZM69.375 50.875H4.625V39.3125C4.625 35.5547 7.66016 32.375 11.5625 32.375H62.4375C66.1953 32.375 69.375 35.5547 69.375 39.3125V50.875ZM57.8125 38.1562C55.7891 38.1562 54.3438 39.7461 54.3438 41.625C54.3438 43.6484 55.7891 45.0938 57.8125 45.0938C59.6914 45.0938 61.2812 43.6484 61.2812 41.625C61.2812 39.7461 59.6914 38.1562 57.8125 38.1562Z" fill="white"/>
</svg>
