<svg width="76" height="76" viewBox="0 0 76 76" fill="none" xmlns="http://www.w3.org/2000/svg">
<path fill-rule="evenodd" clip-rule="evenodd" d="M73.2216 68.2437C73.2216 70.9929 70.9929 73.2216 68.2437 73.2216L7.75629 73.2216C5.00706 73.2216 2.77837 70.9929 2.77837 68.2437V7.75629C2.77837 5.00706 5.00706 2.77837 7.75629 2.77837H68.2437C70.9929 2.77837 73.2216 5.00706 73.2216 7.75629V68.2437ZM68.2437 76C72.5274 76 76 72.5274 76 68.2437V7.75629C76 3.47261 72.5274 0 68.2437 0H7.75629C3.47261 0 0 3.47261 0 7.75629V68.2437C0 72.5274 3.47261 76 7.75629 76H68.2437ZM6.16418 33.4272C5.39696 33.4272 4.775 34.0492 4.775 34.8164V69.8355C4.775 70.6027 5.39696 71.2246 6.16418 71.2246H17.3066C18.0738 71.2246 18.6958 70.6027 18.6958 69.8355V34.8164C18.6958 34.0492 18.0738 33.4272 17.3066 33.4272H6.16418ZM7.55337 68.4463V36.2056H15.9174V68.4463H7.55337ZM22.2847 44.367C22.2847 43.5998 22.9067 42.9779 23.6739 42.9779H34.8163C35.5836 42.9779 36.2055 43.5998 36.2055 44.367V69.8354C36.2055 70.6027 35.5836 71.2246 34.8163 71.2246H23.6739C22.9067 71.2246 22.2847 70.6027 22.2847 69.8354V44.367ZM25.0631 45.7562V68.4463H33.4271V45.7562H25.0631ZM41.1834 28.6519C40.4162 28.6519 39.7942 29.2739 39.7942 30.0411V69.8355C39.7942 70.6027 40.4162 71.2247 41.1834 71.2247H52.3258C53.0931 71.2247 53.715 70.6027 53.715 69.8355V30.0411C53.715 29.2739 53.0931 28.6519 52.3258 28.6519H41.1834ZM42.5726 68.4463V31.4303H50.9367V68.4463H42.5726ZM57.3037 36.4083C57.3037 35.641 57.9257 35.0191 58.6929 35.0191H69.8354C70.6026 35.0191 71.2245 35.641 71.2245 36.4083V69.8355C71.2245 70.6028 70.6026 71.2247 69.8354 71.2247H58.6929C57.9257 71.2247 57.3037 70.6028 57.3037 69.8355V36.4083ZM60.0821 37.7975V68.4464H68.4462V37.7975H60.0821ZM9.14554 22.0822C9.14554 21.0912 9.94891 20.2878 10.9399 20.2878C11.9309 20.2878 12.7343 21.0912 12.7343 22.0822C12.7343 23.0732 11.9309 23.8766 10.9399 23.8766C9.94891 23.8766 9.14554 23.0732 9.14554 22.0822ZM10.9399 17.5095C8.41446 17.5095 6.36717 19.5568 6.36717 22.0822C6.36717 24.6077 8.41446 26.6549 10.9399 26.6549C12.2241 26.6549 13.3847 26.1256 14.2153 25.2731L25.5226 30.9268C25.4869 31.1569 25.4684 31.3927 25.4684 31.6329C25.4684 34.1583 27.5157 36.2056 30.0411 36.2056C32.5666 36.2056 34.6139 34.1583 34.6139 31.6329C34.6139 31.3166 34.5818 31.0078 34.5206 30.7096L44.5088 20.7214C45.317 21.4418 46.3826 21.8796 47.5504 21.8796C48.8846 21.8796 50.0852 21.3083 50.9212 20.3969L60.5182 23.1389C60.4977 23.3144 60.4872 23.493 60.4872 23.674C60.4872 26.1994 62.5345 28.2467 65.0599 28.2467C67.5854 28.2467 69.6327 26.1994 69.6327 23.674C69.6327 21.1485 67.5854 19.1013 65.0599 19.1013C63.7258 19.1013 62.5251 19.6726 61.6892 20.584L52.0922 17.842C52.1127 17.6665 52.1232 17.4879 52.1232 17.3069C52.1232 14.7814 50.0759 12.7342 47.5504 12.7342C45.025 12.7342 42.9777 14.7814 42.9777 17.3069C42.9777 17.6231 43.0098 17.9319 43.0709 18.2301L33.0827 28.2183C32.2745 27.4979 31.209 27.0601 30.0411 27.0601C28.7569 27.0601 27.5963 27.5895 26.7657 28.442L15.4584 22.7884C15.4941 22.5582 15.5126 22.3224 15.5126 22.0822C15.5126 19.5568 13.4654 17.5095 10.9399 17.5095ZM30.0411 29.8385C29.0501 29.8385 28.2468 30.6419 28.2468 31.6329C28.2468 32.6239 29.0501 33.4272 30.0411 33.4272C31.0321 33.4272 31.8355 32.6239 31.8355 31.6329C31.8355 30.6419 31.0321 29.8385 30.0411 29.8385ZM45.7561 17.3069C45.7561 16.3159 46.5594 15.5125 47.5504 15.5125C48.5414 15.5125 49.3448 16.3159 49.3448 17.3069C49.3448 18.2979 48.5414 19.1013 47.5504 19.1013C46.5594 19.1013 45.7561 18.2979 45.7561 17.3069ZM65.0599 21.8796C64.0689 21.8796 63.2656 22.683 63.2656 23.674C63.2656 24.665 64.0689 25.4684 65.0599 25.4684C66.0509 25.4684 66.8543 24.665 66.8543 23.674C66.8543 22.683 66.0509 21.8796 65.0599 21.8796Z" fill="white"/>
</svg>
