<svg width="86" height="76" viewBox="0 0 86 76" fill="none" xmlns="http://www.w3.org/2000/svg">
<path d="M25.6846 20.492C25.6846 20.492 30.8792 15.315 40.6913 5.53642C42.1342 4.09839 43.2886 3.52318 45.5973 5.53642C47.6175 7.54967 61.1812 20.2044 61.4698 20.492C61.7584 20.7796 62.3356 21.0672 62.9128 21.0672C63.4899 21.0672 64.0671 20.7796 64.3557 20.492C65.2215 19.6291 65.2215 18.1911 64.3557 17.3283C63.7785 16.7531 50.5034 4.386 48.4832 2.37275C45.0201 -0.790918 40.9799 -0.790918 37.8054 2.37275C27.7047 12.1514 22.5101 17.3283 22.5101 17.3283C21.6443 18.1911 21.6443 19.6291 22.5101 20.492C23.3758 21.3548 24.8188 21.3548 25.6846 20.492ZM83.6913 22.7928H2.30872C1.15436 22.7928 0 23.6556 0 25.0937V37.7483C0 38.8988 0.865772 40.0492 2.30872 40.0492H7.79195L11.8322 70.5355C11.8322 73.4115 14.1409 76 17.3154 76H68.1074C70.9933 76 73.302 73.6991 73.5906 70.8231L77.6309 40.0492V39.7616H83.6913C84.8456 39.7616 86 38.8988 86 37.4607V24.8061C85.7114 23.6556 84.8456 22.7928 83.6913 22.7928ZM69.2617 69.9603V70.2479C69.2617 70.8231 68.6846 71.3983 68.1074 71.3983H17.3154C16.7383 71.3983 16.1611 70.8231 16.1611 69.9603L12.1208 39.7616H73.302L69.2617 69.9603ZM81.3826 35.4475H4.61745V27.1069H81.6711V35.4475H81.3826Z" fill="white"/>
</svg>
