<svg width="89" height="89" viewBox="0 0 89 89" fill="none" xmlns="http://www.w3.org/2000/svg">
<path d="M30.135 76.6234C29.2843 76.6222 28.4409 76.4667 27.6457 76.1645C25.9283 75.5032 24.5431 74.188 23.7937 72.5072L6.20231 33.1525C5.83148 32.3179 5.62869 31.4185 5.60551 30.5056C5.58234 29.5926 5.73923 28.6841 6.06724 27.8318C6.39524 26.9795 6.88793 26.2002 7.51716 25.5383C8.1464 24.8764 8.89985 24.345 9.73449 23.9744L38.9376 10.9025C39.2687 10.7773 39.6351 10.783 39.9621 10.9185C40.2891 11.0541 40.5521 11.3092 40.6975 11.6319C40.8429 11.9547 40.8598 12.3207 40.7446 12.6554C40.6295 12.9902 40.3911 13.2684 40.0779 13.4334L10.8748 26.5053C10.3739 26.7289 9.92195 27.0492 9.54493 27.4477C9.1679 27.8462 8.87318 28.3151 8.67762 28.8277C8.28191 29.8466 8.30188 30.9801 8.73324 31.9844L26.3246 71.3391C26.5453 71.8451 26.8641 72.3024 27.2628 72.6843C27.6614 73.0663 28.1319 73.3653 28.647 73.5641C29.1564 73.764 29.7007 73.8596 30.2477 73.8453C30.7947 73.8309 31.3333 73.7069 31.8315 73.4806L37.8946 70.6994C38.0626 70.6109 38.2469 70.5577 38.4362 70.5431C38.6254 70.5285 38.8157 70.5529 38.9952 70.6146C39.1747 70.6763 39.3397 70.7742 39.48 70.9021C39.6203 71.03 39.7329 71.1853 39.8108 71.3584C39.8888 71.5315 39.9305 71.7187 39.9334 71.9085C39.9363 72.0983 39.9003 72.2867 39.8276 72.4621C39.7549 72.6375 39.6471 72.7961 39.5108 72.9282C39.3744 73.0603 39.2125 73.1631 39.035 73.2303L32.9718 75.942C32.085 76.3672 31.1181 76.5995 30.135 76.6234V76.6234Z" fill="white"/>
<path d="M25.0315 47.8514C24.1556 47.8525 23.2957 47.6173 22.5424 47.1705C21.7891 46.7238 21.1703 46.082 20.7512 45.3129C20.3322 44.5438 20.1284 43.6759 20.1614 42.8007C20.1944 41.9255 20.463 41.0754 20.9388 40.3401C21.4146 39.6048 22.08 39.0114 22.8648 38.6227C23.6497 38.234 24.5249 38.0642 25.3981 38.1313C26.2714 38.1984 27.1104 38.4999 27.8266 39.0041C28.5428 39.5082 29.1097 40.1962 29.4676 40.9956V41.1068C29.5333 41.2655 29.5664 41.4358 29.5649 41.6075C29.5678 41.9356 29.4546 42.2542 29.2453 42.5069C29.0361 42.7596 28.7441 42.9302 28.4212 42.9884C28.0983 43.0467 27.7652 42.9889 27.4808 42.8252C27.1964 42.6616 26.979 42.4026 26.8671 42.0942C26.6943 41.7209 26.415 41.4071 26.0643 41.1921C25.7136 40.9772 25.3072 40.8707 24.8962 40.886C24.4851 40.9014 24.0878 41.038 23.7542 41.2786C23.4205 41.5191 23.1655 41.853 23.021 42.2381C22.8766 42.6232 22.8493 43.0425 22.9425 43.4431C23.0356 43.8437 23.2452 44.2079 23.5448 44.4897C23.8443 44.7716 24.2206 44.9586 24.6261 45.0272C25.0317 45.0959 25.4485 45.043 25.8241 44.8754C26.0139 44.7994 26.218 44.7662 26.4221 44.7781V46.1687L27.3538 47.1978L26.4221 46.1687L27.3677 47.1978C27.24 47.3096 27.0942 47.3989 26.9366 47.462C26.3355 47.7228 25.6867 47.8554 25.0315 47.8514V47.8514Z" fill="white"/>
<path d="M31.762 33.8061C31.4945 33.8055 31.2329 33.7278 31.0084 33.5823C30.7839 33.4368 30.6062 33.2296 30.4965 32.9856L27.6458 26.6026C27.575 26.433 27.5386 26.251 27.5386 26.0672C27.5386 25.8834 27.575 25.7015 27.6458 25.5318C27.7067 25.3612 27.8025 25.2051 27.9269 25.0734C28.0514 24.9418 28.2019 24.8374 28.3689 24.767L34.7519 21.9858C35.0829 21.8605 35.4493 21.8663 35.7763 22.0018C36.1033 22.1373 36.3663 22.3925 36.5117 22.7152C36.6571 23.0379 36.674 23.404 36.5589 23.7387C36.4438 24.0734 36.2053 24.3517 35.8922 24.5167L30.7747 26.7973L33.0553 31.9009C33.2058 32.2366 33.2171 32.6183 33.0868 32.9623C32.9565 33.3064 32.6951 33.5848 32.36 33.7365C32.1681 33.8031 31.964 33.8268 31.762 33.8061Z" fill="white"/>
<path d="M28.2438 42.9564C27.9523 42.9572 27.6679 42.8663 27.4308 42.6966C27.1937 42.5269 27.016 42.287 26.9227 42.0108C26.8028 41.6586 26.8278 41.2732 26.9921 40.9394C27.1564 40.6055 27.4466 40.3507 27.7988 40.2308C28.151 40.1109 28.5364 40.1359 28.8702 40.3002C29.2041 40.4645 29.4589 40.7547 29.5788 41.1069C29.6991 41.4536 29.6774 41.8339 29.5185 42.1647C29.3596 42.4955 29.0763 42.7501 28.7305 42.873C28.5734 42.925 28.4093 42.9531 28.2438 42.9564Z" fill="white"/>
<path d="M37.547 63.0927C37.3753 63.0941 37.2051 63.061 37.0464 62.9953L27.4372 59.3241C25.7179 58.6642 24.3306 57.3491 23.5797 55.6675C22.8289 53.986 22.7758 52.0752 23.4322 50.3545L26.9505 41.1347C26.9482 41.0884 26.9482 41.0419 26.9505 40.9956L38.8125 10.082C39.1392 9.22905 39.6307 8.44879 40.2591 7.78584C40.8874 7.12289 41.6402 6.59024 42.4745 6.21831C43.3087 5.84638 44.2081 5.64248 45.1211 5.61823C46.0342 5.59399 46.9431 5.74989 47.7959 6.07703L78.9738 17.9947C80.6922 18.652 82.0801 19.9636 82.8334 21.6422C83.5867 23.3208 83.644 25.2296 82.9927 26.9503L77.4302 41.3016C77.2516 41.5553 76.9932 41.7421 76.6963 41.8321C76.3993 41.9221 76.0807 41.9101 75.7913 41.7982C75.5019 41.6863 75.2583 41.4808 75.0991 41.2144C74.94 40.948 74.8745 40.636 74.9131 40.3281L80.3922 25.9908C80.5868 25.4785 80.6785 24.933 80.6622 24.3853C80.6459 23.8376 80.5218 23.2985 80.2971 22.7987C80.0724 22.2989 79.7515 21.8483 79.3526 21.4726C78.9538 21.0969 78.4848 20.8035 77.9725 20.6091L46.7947 8.66359C46.279 8.46796 45.7297 8.37651 45.1785 8.39453C44.6273 8.41255 44.0851 8.53969 43.5833 8.76859C43.0816 8.99749 42.6302 9.32361 42.2553 9.72807C41.8803 10.1325 41.5893 10.6073 41.3991 11.125L29.5788 42.0942V42.2055L26.0605 51.3975C25.8659 51.9097 25.7742 52.4553 25.7905 53.003C25.8068 53.5507 25.9308 54.0898 26.1555 54.5896C26.3802 55.0893 26.7012 55.5399 27.1 55.9156C27.4989 56.2913 27.9679 56.5848 28.4802 56.7792L38.0894 60.4505C38.3685 60.5849 38.5947 60.8087 38.7322 61.0863C38.8697 61.3639 38.9105 61.6795 38.8482 61.983C38.7859 62.2865 38.6241 62.5604 38.3884 62.7615C38.1526 62.9625 37.8565 63.0791 37.547 63.0927Z" fill="white"/>
<path d="M43.1094 39.1739C42.5143 39.1721 41.9247 39.0589 41.3712 38.8402C40.4722 38.4942 39.6961 37.8893 39.1412 37.102C38.5862 36.3147 38.2774 35.3804 38.2537 34.4175C38.23 33.4545 38.4925 32.5062 39.0081 31.6926C39.5237 30.879 40.2691 30.2366 41.1499 29.8469C42.0308 29.4571 43.0075 29.3375 43.9564 29.5031C44.9052 29.6688 45.7836 30.1122 46.4803 30.7774C47.177 31.4425 47.6607 32.2994 47.8701 33.2396C48.0796 34.1798 48.0053 35.161 47.6568 36.0589V36.0589C47.4321 36.6584 47.0901 37.2071 46.6507 37.6727C46.2114 38.1383 45.6835 38.5116 45.098 38.7706C44.47 39.0405 43.793 39.1778 43.1094 39.1739V39.1739ZM43.1094 32.2208C42.8177 32.2259 42.5296 32.2873 42.2612 32.4016C42.0092 32.5129 41.7821 32.6736 41.5934 32.8742C41.4047 33.0749 41.2582 33.3114 41.1626 33.5697C41.0642 33.8262 41.0175 34.0996 41.0251 34.3743C41.0327 34.6489 41.0945 34.9193 41.2069 35.17C41.3194 35.4207 41.4802 35.6467 41.6802 35.835C41.8802 36.0234 42.1154 36.1703 42.3724 36.2675C42.8891 36.458 43.4599 36.438 43.9619 36.2117C44.4639 35.9854 44.8569 35.571 45.0563 35.0577C45.163 34.8046 45.218 34.5327 45.218 34.2581C45.218 33.9834 45.163 33.7115 45.0563 33.4585C44.8284 32.9566 44.4146 32.5627 43.9021 32.3599C43.6485 32.2641 43.3804 32.2123 43.1094 32.2069V32.2208Z" fill="white"/>
<path d="M68.1407 33.1803C67.6321 33.177 67.1282 33.0828 66.6528 32.9022C65.6207 32.5068 64.7877 31.718 64.3366 30.709C63.8856 29.7 63.8533 28.5532 64.247 27.5205C64.437 27.0049 64.7297 26.5332 65.1074 26.134C65.4851 25.7348 65.9399 25.4164 66.4442 25.1981C67.451 24.7457 68.5961 24.7107 69.6287 25.1008C70.1414 25.2965 70.6105 25.5914 71.009 25.9687C71.4075 26.346 71.7277 26.7982 71.9511 27.2994C72.1746 27.8006 72.297 28.341 72.3113 28.8896C72.3256 29.4382 72.2316 29.9842 72.0345 30.4964C71.7333 31.2853 71.1999 31.9642 70.5046 32.4434C69.8094 32.9226 68.9851 33.1796 68.1407 33.1803V33.1803ZM68.1407 27.6178C67.944 27.6187 67.7496 27.6614 67.5706 27.743C67.4023 27.8175 67.2505 27.9248 67.124 28.0585C66.9975 28.1921 66.8988 28.3496 66.8336 28.5217C66.7687 28.6925 66.7381 28.8743 66.7436 29.0569C66.749 29.2395 66.7903 29.4192 66.8652 29.5858C66.9401 29.7523 67.0471 29.9025 67.1801 30.0278C67.313 30.153 67.4694 30.2508 67.6401 30.3156C67.8109 30.3805 67.9927 30.4111 68.1753 30.4056C68.3579 30.4002 68.5376 30.3588 68.7041 30.2839C68.8707 30.209 69.0209 30.1021 69.1462 29.9691C69.2714 29.8362 69.3692 29.6798 69.434 29.5091V29.5091C69.5657 29.166 69.5563 28.7847 69.4078 28.4486C69.2593 28.1125 68.9837 27.8488 68.6414 27.7152C68.4816 27.6514 68.3125 27.6138 68.1407 27.6039V27.6178Z" fill="white"/>
<path d="M52.8439 39.4103C52.6722 39.4118 52.502 39.3787 52.3433 39.313C52.1683 39.2564 52.0063 39.1656 51.8666 39.0459C51.7269 38.9262 51.6124 38.78 51.5296 38.6157C51.4469 38.4515 51.3975 38.2724 51.3844 38.089C51.3713 37.9055 51.3947 37.7212 51.4533 37.5469L56.4179 24.5585C56.5515 24.2161 56.8151 23.9406 57.1513 23.792C57.4874 23.6435 57.8687 23.6341 58.2118 23.7658L65.9993 26.7417C66.1823 26.7974 66.3519 26.8902 66.4974 27.0144C66.643 27.1385 66.7613 27.2914 66.8451 27.4634C66.9288 27.6354 66.9762 27.8228 66.9842 28.014C66.9922 28.2051 66.9607 28.3958 66.8917 28.5743C66.8226 28.7527 66.7175 28.9149 66.5828 29.0508C66.4482 29.1868 66.287 29.2934 66.1093 29.3642C65.9315 29.435 65.7411 29.4683 65.5499 29.4621C65.3587 29.456 65.1708 29.4104 64.998 29.3283L58.5177 26.853L54.0816 38.5203C53.9844 38.7731 53.8154 38.9919 53.5956 39.15C53.3757 39.3081 53.1145 39.3986 52.8439 39.4103V39.4103Z" fill="white"/>
<path d="M52.8439 39.4103C52.6736 39.4098 52.5045 39.3816 52.3433 39.3269L45.849 36.8376C45.5042 36.7067 45.2255 36.4442 45.0742 36.1077C44.923 35.7713 44.9115 35.3886 45.0425 35.0437C45.1734 34.6989 45.436 34.4202 45.7724 34.2689C46.1088 34.1177 46.4915 34.1062 46.8364 34.2372L53.3306 36.7264C53.6298 36.8445 53.8788 37.0627 54.0352 37.3438C54.1916 37.6249 54.2457 37.9515 54.1883 38.268C54.1309 38.5845 53.9655 38.8713 53.7204 39.0796C53.4753 39.2879 53.1655 39.4048 52.8439 39.4103Z" fill="white"/>
<path d="M66.4719 83.4375H58.6844C58.3156 83.4375 57.9618 83.291 57.7011 83.0302C57.4403 82.7694 57.2938 82.4157 57.2938 82.0469V77.3187C56.8189 77.1522 56.3545 76.9572 55.9031 76.7347L52.5656 80.0861C52.4357 80.215 52.2816 80.3169 52.1122 80.3862C51.9427 80.4554 51.7613 80.4904 51.5783 80.4894V80.4894C51.3953 80.4904 51.2138 80.4554 51.0444 80.3862C50.875 80.3169 50.7209 80.215 50.5909 80.0861L45.0284 74.5236C44.8981 74.3943 44.7946 74.2405 44.724 74.0711C44.6534 73.9016 44.6171 73.7198 44.6171 73.5363C44.6171 73.3527 44.6534 73.1709 44.724 73.0014C44.7946 72.832 44.8981 72.6782 45.0284 72.5489L48.3798 69.2114C48.1574 68.76 47.9623 68.2956 47.7958 67.8208H43.1094C42.7406 67.8208 42.3868 67.6743 42.1261 67.4135C41.8653 67.1527 41.7188 66.799 41.7188 66.4302V58.6844C41.7188 58.3156 41.8653 57.9618 42.1261 57.7011C42.3868 57.4403 42.7406 57.2938 43.1094 57.2938H47.8375C48.0041 56.8189 48.1991 56.3545 48.4216 55.9031L45.0702 52.5656C44.9398 52.4363 44.8364 52.2825 44.7658 52.1131C44.6952 51.9436 44.6588 51.7619 44.6588 51.5783C44.6588 51.3947 44.6952 51.2129 44.7658 51.0435C44.8364 50.874 44.9398 50.7202 45.0702 50.5909L50.6327 45.0284C50.7619 44.8981 50.9157 44.7946 51.0852 44.724C51.2547 44.6534 51.4364 44.6171 51.62 44.6171C51.8036 44.6171 51.9853 44.6534 52.1548 44.724C52.3243 44.7946 52.4781 44.8981 52.6073 45.0284L55.9448 48.3798C56.3962 48.1574 56.8606 47.9623 57.3355 47.7958V43.1094C57.3355 42.7406 57.482 42.3868 57.7428 42.1261C58.0036 41.8653 58.3573 41.7188 58.7261 41.7188H66.5136C66.8824 41.7188 67.2361 41.8653 67.4969 42.1261C67.7577 42.3868 67.9042 42.7406 67.9042 43.1094V47.8375C68.3791 48.0041 68.8435 48.1991 69.2948 48.4216L72.6323 45.0702C72.7623 44.9413 72.9164 44.8393 73.0858 44.7701C73.2553 44.7009 73.4367 44.6658 73.6197 44.6669V44.6669C73.8027 44.6658 73.9841 44.7009 74.1536 44.7701C74.323 44.8393 74.4771 44.9413 74.607 45.0702L80.1695 50.6327C80.2999 50.7619 80.4033 50.9157 80.4739 51.0852C80.5445 51.2547 80.5809 51.4364 80.5809 51.62C80.5809 51.8036 80.5445 51.9853 80.4739 52.1548C80.4033 52.3243 80.2999 52.4781 80.1695 52.6073L76.8181 55.9448C77.0406 56.3962 77.2356 56.8606 77.4022 57.3355H82.0469C82.4157 57.3355 82.7694 57.482 83.0302 57.7428C83.291 58.0036 83.4375 58.3573 83.4375 58.7261V66.5136C83.4375 66.8824 83.291 67.2361 83.0302 67.4969C82.7694 67.7577 82.4157 67.9042 82.0469 67.9042H77.3187C77.1522 68.3791 76.9572 68.8435 76.7347 69.2948L80.0861 72.6323C80.2164 72.7616 80.3199 72.9154 80.3905 73.0849C80.4611 73.2543 80.4974 73.4361 80.4974 73.6197C80.4974 73.8033 80.4611 73.985 80.3905 74.1545C80.3199 74.324 80.2164 74.4778 80.0861 74.607L74.5236 80.1695C74.3943 80.2999 74.2405 80.4033 74.0711 80.4739C73.9016 80.5445 73.7198 80.5809 73.5363 80.5809C73.3527 80.5809 73.1709 80.5445 73.0014 80.4739C72.832 80.4033 72.6782 80.2999 72.5489 80.1695L69.2114 76.8181C68.76 77.0406 68.2956 77.2356 67.8208 77.4022V82.0469C67.8209 82.4086 67.6802 82.7561 67.4283 83.0157C67.1765 83.2754 66.8334 83.4266 66.4719 83.4375ZM60.075 80.6562H65.0812V76.3036C65.0697 75.9915 65.1636 75.6846 65.3477 75.4323C65.5319 75.18 65.7956 74.9971 66.0964 74.913C67.0643 74.6413 67.9976 74.2587 68.8777 73.7727C69.1419 73.6222 69.4481 73.5625 69.7495 73.6027C70.0509 73.6429 70.3308 73.7807 70.5464 73.9952L73.6197 77.0823L77.1519 73.5363L74.0786 70.463C73.8642 70.2474 73.7263 69.9675 73.6861 69.6661C73.6459 69.3647 73.7056 69.0584 73.8561 68.7942C74.3421 67.9142 74.7248 66.9809 74.9964 66.013C75.0805 65.7122 75.2635 65.4485 75.5157 65.2643C75.768 65.0801 76.0749 64.9863 76.387 64.9978H80.6562V60.075H76.3036C75.9915 60.0865 75.6846 59.9927 75.4323 59.8085C75.18 59.6244 74.9971 59.3606 74.913 59.0598C74.6413 58.0919 74.2587 57.1586 73.7727 56.2786C73.6222 56.0144 73.5625 55.7081 73.6027 55.4067C73.6429 55.1053 73.7807 54.8254 73.9952 54.6098L77.0684 51.5366L73.5363 47.9905L70.463 51.0777C70.2474 51.2921 69.9675 51.4299 69.6661 51.4701C69.3647 51.5103 69.0584 51.4506 68.7942 51.3002C67.9142 50.8141 66.9809 50.4315 66.013 50.1598C65.7122 50.0757 65.4485 49.8928 65.2643 49.6405C65.0801 49.3883 64.9863 49.0813 64.9978 48.7692V44.5H60.075V48.8527C60.0865 49.1648 59.9927 49.4717 59.8085 49.724C59.6244 49.9762 59.3606 50.1592 59.0598 50.2433C58.0919 50.5149 57.1586 50.8976 56.2786 51.3836C56.0144 51.534 55.7081 51.5937 55.4067 51.5536C55.1053 51.5134 54.8254 51.3755 54.6098 51.1611L51.5366 48.0739L48.0044 51.62L51.0777 54.6933C51.2921 54.9089 51.4299 55.1888 51.4701 55.4902C51.5103 55.7916 51.4506 56.0978 51.3002 56.362C50.8141 57.2421 50.4315 58.1754 50.1598 59.1433C50.0757 59.4441 49.8928 59.7078 49.6405 59.892C49.3883 60.0761 49.0813 60.17 48.7692 60.1584H44.5V65.1647H48.8527C49.1648 65.1531 49.4717 65.247 49.724 65.4312C49.9762 65.6153 50.1592 65.879 50.2433 66.1798C50.5149 67.1478 50.8976 68.0811 51.3836 68.9611C51.534 69.2253 51.5937 69.5316 51.5536 69.833C51.5134 70.1344 51.3755 70.4143 51.1611 70.6298L48.0878 73.7031L51.62 77.2492L54.6933 74.162C54.9089 73.9476 55.1888 73.8098 55.4902 73.7696C55.7916 73.7294 56.0978 73.7891 56.362 73.9395C57.2421 74.4255 58.1754 74.8082 59.1433 75.0798C59.4441 75.164 59.7078 75.3469 59.892 75.5992C60.0761 75.8514 60.17 76.1583 60.1584 76.4705L60.075 80.6562Z" fill="white"/>
<path d="M62.5781 72.3125C60.6528 72.3125 58.7708 71.7416 57.17 70.672C55.5692 69.6023 54.3215 68.082 53.5847 66.3033C52.848 64.5246 52.6552 62.5673 53.0308 60.679C53.4064 58.7908 54.3335 57.0563 55.6949 55.6949C57.0563 54.3335 58.7908 53.4064 60.679 53.0308C62.5673 52.6552 64.5246 52.848 66.3033 53.5847C68.082 54.3215 69.6023 55.5692 70.672 57.17C71.7416 58.7708 72.3125 60.6529 72.3125 62.5781C72.3125 65.1598 71.2869 67.6358 69.4614 69.4614C67.6358 71.2869 65.1598 72.3125 62.5781 72.3125ZM62.5781 55.625C61.2029 55.625 59.8586 56.0328 58.7152 56.7968C57.5717 57.5608 56.6805 58.6468 56.1543 59.9173C55.628 61.1878 55.4903 62.5858 55.7586 63.9346C56.0269 65.2834 56.6891 66.5223 57.6615 67.4947C58.6339 68.4671 59.8729 69.1294 61.2216 69.3976C62.5704 69.6659 63.9685 69.5282 65.239 69.002C66.5095 68.4757 67.5954 67.5845 68.3594 66.4411C69.1235 65.2976 69.5312 63.9533 69.5312 62.5781C69.5312 60.734 68.7987 58.9655 67.4947 57.6615C66.1908 56.3576 64.4222 55.625 62.5781 55.625Z" fill="white"/>
</svg>
