<svg width="44" height="59" viewBox="0 0 44 59" fill="none" xmlns="http://www.w3.org/2000/svg">
<path d="M42.2812 11.293L32.7708 1.72852C31.7396 0.691406 30.3646 0 28.875 0H5.5C2.40625 0 0 2.53516 0 5.53125V53.4687C0 56.5801 2.40625 59 5.5 59H38.5C41.4792 59 44 56.5801 44 53.4687V15.2109C44 13.7129 43.3125 12.3301 42.2812 11.293ZM39.7604 13.9434C39.9896 14.1738 40.1042 14.5195 40.2187 14.75H29.3333V3.80273C29.5625 3.91797 29.9062 4.0332 30.1354 4.26367L39.7604 13.9434ZM38.5 55.3125H5.5C4.46875 55.3125 3.66667 54.5059 3.66667 53.4687V5.53125C3.66667 4.60937 4.46875 3.6875 5.5 3.6875H25.6667V15.6719C25.6667 17.2852 26.8125 18.4375 28.4167 18.4375H40.3333V53.4687C40.3333 54.5059 39.4167 55.3125 38.5 55.3125Z" fill="white"/>
<path d="M33.6489 32L28 38.9961L22.2748 32H18.458L26.1679 41.2054L18 51H21.8168L28 43.562L34.1832 51H38L29.9084 41.2054L37.542 32H33.6489Z" fill="white"/>
</svg>
