<svg width="57" height="71" viewBox="0 0 57 71" fill="none" xmlns="http://www.w3.org/2000/svg">
<path fill-rule="evenodd" clip-rule="evenodd" d="M32.7708 1.72852L36.0238 5H30.8676L30.1354 4.26367C29.9603 4.08761 29.7184 3.9788 29.5118 3.88586C29.4479 3.85714 29.3874 3.82994 29.3333 3.80273V5H25.6667V3.6875H5.5C4.46875 3.6875 3.66667 4.60938 3.66667 5.53125V53.4688C3.66667 54.3307 4.22076 55.0335 5 55.2463V58.9787C2.15083 58.7339 0 56.4103 0 53.4688V5.53125C0 2.53516 2.40625 0 5.5 0H28.875C30.3646 0 31.7396 0.691406 32.7708 1.72852ZM43.0238 11L39.7708 7.72852C38.7396 6.69141 37.3646 6 35.875 6H12.5C9.40625 6 7 8.53516 7 11.5312V59.4688C7 62.4103 9.15083 64.7339 12 64.9787V61.2463C11.2208 61.0335 10.6667 60.3307 10.6667 59.4688V11.5312C10.6667 10.6094 11.4688 9.6875 12.5 9.6875H32.6667V11H36.3333V9.80273C36.3874 9.82992 36.4479 9.85711 36.5117 9.88582L36.5118 9.88586C36.7184 9.9788 36.9604 10.0876 37.1354 10.2637L37.8676 11H43.0238ZM45.7708 13.7285L55.2812 23.293C56.3125 24.3301 57 25.7129 57 27.2109V65.4688C57 68.5801 54.4792 71 51.5 71H18.5C15.4062 71 13 68.5801 13 65.4688V17.5312C13 14.5352 15.4062 12 18.5 12H41.875C43.3646 12 44.7396 12.6914 45.7708 13.7285ZM53.1361 26.5706C53.0437 26.3627 52.9355 26.1194 52.7604 25.9434L43.1354 16.2637C42.9603 16.0876 42.7184 15.9788 42.5118 15.8859C42.4479 15.8571 42.3874 15.8299 42.3333 15.8027V26.75H53.2188C53.1917 26.6956 53.1646 26.6348 53.1361 26.5706ZM18.5 67.3125H51.5C52.4167 67.3125 53.3333 66.5059 53.3333 65.4688V30.4375H41.4167C39.8125 30.4375 38.6667 29.2852 38.6667 27.6719V15.6875H18.5C17.4688 15.6875 16.6667 16.6094 16.6667 17.5312V65.4688C16.6667 66.5059 17.4688 67.3125 18.5 67.3125ZM49 63V60.5199H35.6492L48.4863 42.2115V40H47.17H46.56H32.2087V42.4959H44.8066L32 60.7253V63H33.1719H33.9103H49Z" fill="white"/>
</svg>
